<mxfile host="app.diagrams.net" agent="Mozilla/5.0 (Macintosh; Intel Mac OS X 10_15_7) AppleWebKit/537.36 (KHTML, like Gecko) Chrome/137.0.0.0 Safari/537.36" version="27.2.0" pages="7">
  <diagram name="Page-1" id="f5gBRtoDCv-JQJgYctbf">
    <mxGraphModel dx="861" dy="482" grid="0" gridSize="10" guides="1" tooltips="1" connect="1" arrows="1" fold="1" page="1" pageScale="1" pageWidth="827" pageHeight="1169" math="0" shadow="0">
      <root>
        <mxCell id="0" />
        <mxCell id="1" parent="0" />
        <mxCell id="ynoYoEqA6NvLa0XQNRUX-14" value="" style="endArrow=none;html=1;rounded=0;strokeWidth=5;fillColor=#d0cee2;strokeColor=#56517e;fontStyle=1;fontSize=14;" parent="1" target="ynoYoEqA6NvLa0XQNRUX-13" edge="1">
          <mxGeometry width="50" height="50" relative="1" as="geometry">
            <mxPoint x="320" y="520" as="sourcePoint" />
            <mxPoint x="320" y="260" as="targetPoint" />
          </mxGeometry>
        </mxCell>
        <mxCell id="ynoYoEqA6NvLa0XQNRUX-12" value="" style="endArrow=none;html=1;rounded=0;strokeWidth=5;fillColor=#d0cee2;strokeColor=#56517e;fontStyle=1;fontSize=14;" parent="1" source="ynoYoEqA6NvLa0XQNRUX-13" target="ynoYoEqA6NvLa0XQNRUX-11" edge="1">
          <mxGeometry width="50" height="50" relative="1" as="geometry">
            <mxPoint x="320" y="510" as="sourcePoint" />
            <mxPoint x="320" y="119" as="targetPoint" />
          </mxGeometry>
        </mxCell>
        <mxCell id="ynoYoEqA6NvLa0XQNRUX-1" value="" style="endArrow=none;html=1;rounded=0;strokeWidth=5;fillColor=#d0cee2;strokeColor=#56517e;fontStyle=1;fontSize=14;" parent="1" source="ynoYoEqA6NvLa0XQNRUX-11" edge="1">
          <mxGeometry width="50" height="50" relative="1" as="geometry">
            <mxPoint x="320" y="510" as="sourcePoint" />
            <mxPoint x="320" y="130" as="targetPoint" />
          </mxGeometry>
        </mxCell>
        <mxCell id="ynoYoEqA6NvLa0XQNRUX-3" value="1" style="whiteSpace=wrap;html=1;aspect=fixed;fillColor=#d0cee2;strokeColor=#56517e;fontStyle=1;fontSize=14;" parent="1" vertex="1">
          <mxGeometry x="310" y="160" width="20" height="20" as="geometry" />
        </mxCell>
        <mxCell id="ynoYoEqA6NvLa0XQNRUX-6" value="" style="endArrow=none;html=1;rounded=0;strokeWidth=3;entryX=0;entryY=0.5;entryDx=0;entryDy=0;fillColor=#d0cee2;strokeColor=#56517e;fontStyle=1;fontSize=14;" parent="1" target="ynoYoEqA6NvLa0XQNRUX-3" edge="1">
          <mxGeometry width="50" height="50" relative="1" as="geometry">
            <mxPoint x="240" y="170" as="sourcePoint" />
            <mxPoint x="440" y="300" as="targetPoint" />
          </mxGeometry>
        </mxCell>
        <mxCell id="ynoYoEqA6NvLa0XQNRUX-7" value="3" style="whiteSpace=wrap;html=1;aspect=fixed;fillColor=#d0cee2;strokeColor=#56517e;fontStyle=1;fontSize=14;" parent="1" vertex="1">
          <mxGeometry x="310" y="320" width="20" height="20" as="geometry" />
        </mxCell>
        <mxCell id="ynoYoEqA6NvLa0XQNRUX-8" value="" style="endArrow=none;html=1;rounded=0;strokeWidth=3;entryX=0;entryY=0.5;entryDx=0;entryDy=0;fillColor=#d0cee2;strokeColor=#56517e;fontStyle=1;fontSize=14;" parent="1" target="ynoYoEqA6NvLa0XQNRUX-7" edge="1">
          <mxGeometry width="50" height="50" relative="1" as="geometry">
            <mxPoint x="240" y="330" as="sourcePoint" />
            <mxPoint x="440" y="460" as="targetPoint" />
          </mxGeometry>
        </mxCell>
        <mxCell id="ynoYoEqA6NvLa0XQNRUX-9" value="5" style="whiteSpace=wrap;html=1;aspect=fixed;fillColor=#d0cee2;strokeColor=#56517e;fontStyle=1;fontSize=14;" parent="1" vertex="1">
          <mxGeometry x="310" y="480" width="20" height="20" as="geometry" />
        </mxCell>
        <mxCell id="ynoYoEqA6NvLa0XQNRUX-10" value="" style="endArrow=none;html=1;rounded=0;strokeWidth=3;entryX=0;entryY=0.5;entryDx=0;entryDy=0;fillColor=#d0cee2;strokeColor=#56517e;fontStyle=1;fontSize=14;" parent="1" target="ynoYoEqA6NvLa0XQNRUX-9" edge="1">
          <mxGeometry width="50" height="50" relative="1" as="geometry">
            <mxPoint x="240" y="490" as="sourcePoint" />
            <mxPoint x="440" y="620" as="targetPoint" />
          </mxGeometry>
        </mxCell>
        <mxCell id="ynoYoEqA6NvLa0XQNRUX-11" value="2" style="whiteSpace=wrap;html=1;aspect=fixed;fillColor=#d0cee2;strokeColor=#56517e;fontStyle=1;fontSize=14;" parent="1" vertex="1">
          <mxGeometry x="310" y="240" width="20" height="20" as="geometry" />
        </mxCell>
        <mxCell id="ynoYoEqA6NvLa0XQNRUX-13" value="4" style="whiteSpace=wrap;html=1;aspect=fixed;fillColor=#d0cee2;strokeColor=#56517e;fontStyle=1;fontSize=14;" parent="1" vertex="1">
          <mxGeometry x="310" y="400" width="20" height="20" as="geometry" />
        </mxCell>
        <mxCell id="ynoYoEqA6NvLa0XQNRUX-15" value="" style="endArrow=none;html=1;rounded=0;strokeWidth=3;entryX=0;entryY=0.5;entryDx=0;entryDy=0;fillColor=#d0cee2;strokeColor=#56517e;fontStyle=1;fontSize=14;" parent="1" edge="1">
          <mxGeometry width="50" height="50" relative="1" as="geometry">
            <mxPoint x="330" y="249.70999999999998" as="sourcePoint" />
            <mxPoint x="400" y="249.70999999999998" as="targetPoint" />
          </mxGeometry>
        </mxCell>
        <mxCell id="ynoYoEqA6NvLa0XQNRUX-16" value="" style="endArrow=none;html=1;rounded=0;strokeWidth=3;entryX=0;entryY=0.5;entryDx=0;entryDy=0;fillColor=#d0cee2;strokeColor=#56517e;fontStyle=1;fontSize=14;" parent="1" edge="1">
          <mxGeometry width="50" height="50" relative="1" as="geometry">
            <mxPoint x="330" y="409.71" as="sourcePoint" />
            <mxPoint x="400" y="409.71" as="targetPoint" />
          </mxGeometry>
        </mxCell>
      </root>
    </mxGraphModel>
  </diagram>
  <diagram id="KPvEPnKbHCaUwcrlcBMr" name="Page-2">
    <mxGraphModel dx="664" dy="489" grid="0" gridSize="10" guides="1" tooltips="1" connect="1" arrows="1" fold="1" page="1" pageScale="1" pageWidth="827" pageHeight="1169" math="0" shadow="0">
      <root>
        <mxCell id="0" />
        <mxCell id="1" parent="0" />
        <mxCell id="USfQgNYZg4U5y30bwmGI-1" value="Spring,&lt;div&gt;Hibernate,&lt;/div&gt;&lt;div&gt;Common Loggings,&lt;/div&gt;&lt;div&gt;JSON&lt;/div&gt;&lt;div&gt;...&lt;/div&gt;&lt;div&gt;...&lt;/div&gt;&lt;div&gt;...&lt;/div&gt;&lt;div&gt;&lt;b&gt;Developer&lt;/b&gt;&lt;/div&gt;" style="rounded=0;whiteSpace=wrap;html=1;fillColor=#1ba1e2;fontColor=#ffffff;strokeColor=#006EAF;" vertex="1" parent="1">
          <mxGeometry x="80" y="120" width="120" height="160" as="geometry" />
        </mxCell>
        <mxCell id="USfQgNYZg4U5y30bwmGI-2" value="Project Config File" style="text;html=1;align=center;verticalAlign=middle;resizable=0;points=[];autosize=1;strokeColor=none;fillColor=none;fontSize=15;fontStyle=1" vertex="1" parent="1">
          <mxGeometry x="65" y="90" width="150" height="30" as="geometry" />
        </mxCell>
        <mxCell id="USfQgNYZg4U5y30bwmGI-4" value="Maven" style="rounded=1;whiteSpace=wrap;html=1;fillColor=#e51400;fontColor=#ffffff;strokeColor=#B20000;" vertex="1" parent="1">
          <mxGeometry x="320" y="170" width="120" height="60" as="geometry" />
        </mxCell>
        <mxCell id="USfQgNYZg4U5y30bwmGI-5" value="(Your Computer)" style="rounded=0;whiteSpace=wrap;html=1;fillColor=#008a00;fontColor=#ffffff;strokeColor=#005700;" vertex="1" parent="1">
          <mxGeometry x="600" y="80" width="120" height="80" as="geometry" />
        </mxCell>
        <mxCell id="USfQgNYZg4U5y30bwmGI-6" value="" style="rounded=0;whiteSpace=wrap;html=1;fillColor=#a0522d;fontColor=#ffffff;strokeColor=#6D1F00;" vertex="1" parent="1">
          <mxGeometry x="600" y="259" width="120" height="170" as="geometry" />
        </mxCell>
        <mxCell id="USfQgNYZg4U5y30bwmGI-7" value="Maven Local Repository" style="text;html=1;align=center;verticalAlign=middle;resizable=0;points=[];autosize=1;strokeColor=none;fillColor=none;fontSize=15;fontStyle=1" vertex="1" parent="1">
          <mxGeometry x="570" y="48" width="180" height="30" as="geometry" />
        </mxCell>
        <mxCell id="USfQgNYZg4U5y30bwmGI-8" value="Maven Central Repository (remote)" style="text;html=1;align=center;verticalAlign=middle;resizable=0;points=[];autosize=1;strokeColor=none;fillColor=none;fontSize=15;fontStyle=1" vertex="1" parent="1">
          <mxGeometry x="530" y="229" width="260" height="30" as="geometry" />
        </mxCell>
        <mxCell id="USfQgNYZg4U5y30bwmGI-9" value="" style="rounded=0;whiteSpace=wrap;html=1;fillColor=#d5e8d4;strokeColor=#82b366;" vertex="1" parent="1">
          <mxGeometry x="612" y="279" width="96" height="20" as="geometry" />
        </mxCell>
        <mxCell id="USfQgNYZg4U5y30bwmGI-10" value="" style="rounded=0;whiteSpace=wrap;html=1;fillColor=#ffe6cc;strokeColor=#d79b00;" vertex="1" parent="1">
          <mxGeometry x="612" y="309" width="96" height="20" as="geometry" />
        </mxCell>
        <mxCell id="USfQgNYZg4U5y30bwmGI-11" value="" style="rounded=0;whiteSpace=wrap;html=1;fillColor=#f8cecc;strokeColor=#b85450;" vertex="1" parent="1">
          <mxGeometry x="612" y="339" width="96" height="20" as="geometry" />
        </mxCell>
        <mxCell id="USfQgNYZg4U5y30bwmGI-12" value="" style="rounded=0;whiteSpace=wrap;html=1;fillColor=#e1d5e7;strokeColor=#9673a6;" vertex="1" parent="1">
          <mxGeometry x="612" y="369" width="96" height="20" as="geometry" />
        </mxCell>
        <mxCell id="USfQgNYZg4U5y30bwmGI-13" value="" style="endArrow=classic;startArrow=classic;html=1;rounded=0;strokeWidth=3;" edge="1" parent="1">
          <mxGeometry width="50" height="50" relative="1" as="geometry">
            <mxPoint x="210" y="200" as="sourcePoint" />
            <mxPoint x="310" y="200" as="targetPoint" />
          </mxGeometry>
        </mxCell>
        <mxCell id="USfQgNYZg4U5y30bwmGI-14" value="" style="endArrow=classic;startArrow=classic;html=1;rounded=0;strokeWidth=3;" edge="1" parent="1">
          <mxGeometry width="50" height="50" relative="1" as="geometry">
            <mxPoint x="460" y="190" as="sourcePoint" />
            <mxPoint x="590" y="130" as="targetPoint" />
          </mxGeometry>
        </mxCell>
        <mxCell id="USfQgNYZg4U5y30bwmGI-15" value="" style="endArrow=classic;startArrow=classic;html=1;rounded=0;strokeWidth=3;" edge="1" parent="1">
          <mxGeometry width="50" height="50" relative="1" as="geometry">
            <mxPoint x="460" y="210" as="sourcePoint" />
            <mxPoint x="590" y="339" as="targetPoint" />
          </mxGeometry>
        </mxCell>
        <mxCell id="USfQgNYZg4U5y30bwmGI-16" value="1" style="ellipse;whiteSpace=wrap;html=1;aspect=fixed;fillColor=#e51400;fontColor=#ffffff;strokeColor=#B20000;fontStyle=1" vertex="1" parent="1">
          <mxGeometry x="235" y="160" width="30" height="30" as="geometry" />
        </mxCell>
        <mxCell id="USfQgNYZg4U5y30bwmGI-18" value="5" style="ellipse;whiteSpace=wrap;html=1;aspect=fixed;fillColor=#e51400;strokeColor=#B20000;fontStyle=1;fontColor=#ffffff;" vertex="1" parent="1">
          <mxGeometry x="270" y="210" width="30" height="30" as="geometry" />
        </mxCell>
        <mxCell id="USfQgNYZg4U5y30bwmGI-19" value="3" style="ellipse;whiteSpace=wrap;html=1;aspect=fixed;fillColor=#e51400;fontColor=#ffffff;strokeColor=#B20000;fontStyle=1" vertex="1" parent="1">
          <mxGeometry x="495" y="280" width="30" height="30" as="geometry" />
        </mxCell>
        <mxCell id="USfQgNYZg4U5y30bwmGI-20" value="4" style="ellipse;whiteSpace=wrap;html=1;aspect=fixed;fillColor=#e51400;fontColor=#ffffff;strokeColor=#B20000;fontStyle=1" vertex="1" parent="1">
          <mxGeometry x="555" y="150" width="30" height="30" as="geometry" />
        </mxCell>
        <mxCell id="USfQgNYZg4U5y30bwmGI-21" value="2" style="ellipse;whiteSpace=wrap;html=1;aspect=fixed;fillColor=#e51400;fontColor=#ffffff;strokeColor=#B20000;fontStyle=1" vertex="1" parent="1">
          <mxGeometry x="460" y="140" width="30" height="30" as="geometry" />
        </mxCell>
        <mxCell id="USfQgNYZg4U5y30bwmGI-22" value="Read Config File" style="text;html=1;align=center;verticalAlign=middle;resizable=0;points=[];autosize=1;strokeColor=#6c8ebf;fillColor=#dae8fc;" vertex="1" parent="1">
          <mxGeometry x="210" y="124" width="110" height="30" as="geometry" />
        </mxCell>
        <mxCell id="USfQgNYZg4U5y30bwmGI-23" value="Check local repo" style="text;html=1;align=center;verticalAlign=middle;resizable=0;points=[];autosize=1;strokeColor=#6c8ebf;fillColor=#dae8fc;" vertex="1" parent="1">
          <mxGeometry x="415" y="104" width="110" height="30" as="geometry" />
        </mxCell>
        <mxCell id="USfQgNYZg4U5y30bwmGI-24" value="Save in local repo" style="text;html=1;align=center;verticalAlign=middle;resizable=0;points=[];autosize=1;strokeColor=#6c8ebf;fillColor=#dae8fc;" vertex="1" parent="1">
          <mxGeometry x="510" y="185" width="120" height="30" as="geometry" />
        </mxCell>
        <mxCell id="USfQgNYZg4U5y30bwmGI-25" value="Get from remote repo" style="text;html=1;align=center;verticalAlign=middle;resizable=0;points=[];autosize=1;strokeColor=#6c8ebf;fillColor=#dae8fc;" vertex="1" parent="1">
          <mxGeometry x="405" y="316" width="140" height="30" as="geometry" />
        </mxCell>
        <mxCell id="USfQgNYZg4U5y30bwmGI-26" value="Build and Run" style="text;html=1;align=center;verticalAlign=middle;resizable=0;points=[];autosize=1;strokeColor=#6c8ebf;fillColor=#dae8fc;" vertex="1" parent="1">
          <mxGeometry x="239" y="246" width="100" height="30" as="geometry" />
        </mxCell>
      </root>
    </mxGraphModel>
  </diagram>
  <diagram id="KiSnGqvnutJBLDztOcU-" name="Page-3">
    <mxGraphModel dx="645" dy="362" grid="1" gridSize="10" guides="1" tooltips="1" connect="1" arrows="1" fold="1" page="1" pageScale="1" pageWidth="827" pageHeight="1169" math="0" shadow="0">
      <root>
        <mxCell id="0" />
        <mxCell id="1" parent="0" />
        <mxCell id="fs6ex0bRZOL06aJI1GMX-1" value="T1" style="ellipse;whiteSpace=wrap;html=1;aspect=fixed;" vertex="1" parent="1">
          <mxGeometry x="374" y="190" width="80" height="80" as="geometry" />
        </mxCell>
        <mxCell id="fs6ex0bRZOL06aJI1GMX-2" value="Event Loop" style="text;html=1;align=center;verticalAlign=middle;resizable=0;points=[];autosize=1;strokeColor=none;fillColor=none;" vertex="1" parent="1">
          <mxGeometry x="374" y="160" width="80" height="30" as="geometry" />
        </mxCell>
        <mxCell id="fs6ex0bRZOL06aJI1GMX-9" style="edgeStyle=orthogonalEdgeStyle;rounded=0;orthogonalLoop=1;jettySize=auto;html=1;exitX=0.5;exitY=0;exitDx=0;exitDy=0;entryX=0;entryY=0.5;entryDx=0;entryDy=0;" edge="1" parent="1" source="fs6ex0bRZOL06aJI1GMX-3" target="fs6ex0bRZOL06aJI1GMX-1">
          <mxGeometry relative="1" as="geometry" />
        </mxCell>
        <mxCell id="fs6ex0bRZOL06aJI1GMX-3" value="" style="rounded=0;whiteSpace=wrap;html=1;" vertex="1" parent="1">
          <mxGeometry x="160" y="230" width="120" height="180" as="geometry" />
        </mxCell>
        <mxCell id="fs6ex0bRZOL06aJI1GMX-4" value="Event Queue" style="text;html=1;align=center;verticalAlign=middle;resizable=0;points=[];autosize=1;strokeColor=none;fillColor=none;" vertex="1" parent="1">
          <mxGeometry x="175" y="418" width="90" height="30" as="geometry" />
        </mxCell>
        <mxCell id="fs6ex0bRZOL06aJI1GMX-5" value="click" style="rounded=0;whiteSpace=wrap;html=1;" vertex="1" parent="1">
          <mxGeometry x="175" y="360" width="90" height="40" as="geometry" />
        </mxCell>
        <mxCell id="fs6ex0bRZOL06aJI1GMX-7" value="req" style="rounded=0;whiteSpace=wrap;html=1;" vertex="1" parent="1">
          <mxGeometry x="175" y="260" width="90" height="40" as="geometry" />
        </mxCell>
        <mxCell id="fs6ex0bRZOL06aJI1GMX-8" value="data" style="rounded=0;whiteSpace=wrap;html=1;" vertex="1" parent="1">
          <mxGeometry x="175" y="310" width="90" height="40" as="geometry" />
        </mxCell>
        <mxCell id="fs6ex0bRZOL06aJI1GMX-10" value="Different Thread Environment&lt;div&gt;(Web Workers / C++ Thread Pool)&lt;/div&gt;" style="rounded=0;whiteSpace=wrap;html=1;" vertex="1" parent="1">
          <mxGeometry x="580" y="200" width="120" height="60" as="geometry" />
        </mxCell>
        <mxCell id="fs6ex0bRZOL06aJI1GMX-11" style="edgeStyle=orthogonalEdgeStyle;rounded=0;orthogonalLoop=1;jettySize=auto;html=1;exitX=1;exitY=0.5;exitDx=0;exitDy=0;entryX=-0.029;entryY=0.423;entryDx=0;entryDy=0;entryPerimeter=0;" edge="1" parent="1" source="fs6ex0bRZOL06aJI1GMX-1" target="fs6ex0bRZOL06aJI1GMX-10">
          <mxGeometry relative="1" as="geometry" />
        </mxCell>
        <mxCell id="fs6ex0bRZOL06aJI1GMX-12" value="Async Ops" style="text;html=1;align=center;verticalAlign=middle;resizable=0;points=[];autosize=1;strokeColor=none;fillColor=none;" vertex="1" parent="1">
          <mxGeometry x="470" y="190" width="80" height="30" as="geometry" />
        </mxCell>
      </root>
    </mxGraphModel>
  </diagram>
  <diagram id="HW-l1P5HODhnPUJiFuzH" name="Page-4">
    <mxGraphModel dx="662" dy="371" grid="1" gridSize="10" guides="1" tooltips="1" connect="1" arrows="1" fold="1" page="1" pageScale="1" pageWidth="827" pageHeight="1169" math="0" shadow="0">
      <root>
        <mxCell id="0" />
        <mxCell id="1" parent="0" />
        <mxCell id="K3AWcvOQubqJfNG0809f-3" value="" style="edgeStyle=orthogonalEdgeStyle;rounded=0;orthogonalLoop=1;jettySize=auto;html=1;" edge="1" parent="1" source="K3AWcvOQubqJfNG0809f-1" target="K3AWcvOQubqJfNG0809f-2">
          <mxGeometry relative="1" as="geometry" />
        </mxCell>
        <mxCell id="K3AWcvOQubqJfNG0809f-1" value="ng serve&lt;div&gt;npm start&lt;/div&gt;" style="text;html=1;align=center;verticalAlign=middle;resizable=0;points=[];autosize=1;strokeColor=none;fillColor=none;" vertex="1" parent="1">
          <mxGeometry x="181" y="140" width="70" height="40" as="geometry" />
        </mxCell>
        <mxCell id="K3AWcvOQubqJfNG0809f-5" value="" style="edgeStyle=orthogonalEdgeStyle;rounded=0;orthogonalLoop=1;jettySize=auto;html=1;" edge="1" parent="1" source="K3AWcvOQubqJfNG0809f-2" target="K3AWcvOQubqJfNG0809f-4">
          <mxGeometry relative="1" as="geometry" />
        </mxCell>
        <mxCell id="K3AWcvOQubqJfNG0809f-2" value="starts the&amp;nbsp;&lt;div&gt;Development Server&lt;/div&gt;" style="text;html=1;align=center;verticalAlign=middle;resizable=0;points=[];autosize=1;strokeColor=none;fillColor=none;" vertex="1" parent="1">
          <mxGeometry x="301" y="140" width="130" height="40" as="geometry" />
        </mxCell>
        <mxCell id="K3AWcvOQubqJfNG0809f-7" value="" style="edgeStyle=orthogonalEdgeStyle;rounded=0;orthogonalLoop=1;jettySize=auto;html=1;" edge="1" parent="1" source="K3AWcvOQubqJfNG0809f-4" target="K3AWcvOQubqJfNG0809f-6">
          <mxGeometry relative="1" as="geometry" />
        </mxCell>
        <mxCell id="K3AWcvOQubqJfNG0809f-4" value="index.html&lt;div&gt;on browser&lt;/div&gt;" style="text;html=1;align=center;verticalAlign=middle;resizable=0;points=[];autosize=1;strokeColor=none;fillColor=none;" vertex="1" parent="1">
          <mxGeometry x="536" y="140" width="80" height="40" as="geometry" />
        </mxCell>
        <mxCell id="K3AWcvOQubqJfNG0809f-9" value="" style="edgeStyle=orthogonalEdgeStyle;rounded=0;orthogonalLoop=1;jettySize=auto;html=1;" edge="1" parent="1" source="K3AWcvOQubqJfNG0809f-6" target="K3AWcvOQubqJfNG0809f-8">
          <mxGeometry relative="1" as="geometry" />
        </mxCell>
        <mxCell id="K3AWcvOQubqJfNG0809f-6" value="main.ts&lt;div&gt;on browser&lt;/div&gt;" style="text;html=1;align=center;verticalAlign=middle;resizable=0;points=[];autosize=1;strokeColor=none;fillColor=none;" vertex="1" parent="1">
          <mxGeometry x="536" y="260" width="80" height="40" as="geometry" />
        </mxCell>
        <mxCell id="K3AWcvOQubqJfNG0809f-11" value="" style="edgeStyle=orthogonalEdgeStyle;rounded=0;orthogonalLoop=1;jettySize=auto;html=1;" edge="1" parent="1" source="K3AWcvOQubqJfNG0809f-8" target="K3AWcvOQubqJfNG0809f-10">
          <mxGeometry relative="1" as="geometry" />
        </mxCell>
        <mxCell id="K3AWcvOQubqJfNG0809f-8" value="bootstrap AppModule&lt;div&gt;on browser&lt;/div&gt;" style="text;html=1;align=center;verticalAlign=middle;resizable=0;points=[];autosize=1;strokeColor=none;fillColor=none;" vertex="1" parent="1">
          <mxGeometry x="346" y="260" width="140" height="40" as="geometry" />
        </mxCell>
        <mxCell id="K3AWcvOQubqJfNG0809f-13" value="" style="edgeStyle=orthogonalEdgeStyle;rounded=0;orthogonalLoop=1;jettySize=auto;html=1;" edge="1" parent="1" source="K3AWcvOQubqJfNG0809f-10" target="K3AWcvOQubqJfNG0809f-12">
          <mxGeometry relative="1" as="geometry" />
        </mxCell>
        <mxCell id="K3AWcvOQubqJfNG0809f-10" value="bootstrap&amp;nbsp;&lt;div&gt;AppComponent&lt;/div&gt;" style="text;html=1;align=center;verticalAlign=middle;resizable=0;points=[];autosize=1;strokeColor=none;fillColor=none;" vertex="1" parent="1">
          <mxGeometry x="141" y="260" width="110" height="40" as="geometry" />
        </mxCell>
        <mxCell id="K3AWcvOQubqJfNG0809f-12" value="Template&lt;div&gt;CSS&lt;/div&gt;&lt;div&gt;Spec&lt;/div&gt;&lt;div&gt;TypeScript&lt;/div&gt;" style="text;html=1;align=center;verticalAlign=middle;resizable=0;points=[];autosize=1;strokeColor=none;fillColor=none;" vertex="1" parent="1">
          <mxGeometry x="156" y="365" width="80" height="70" as="geometry" />
        </mxCell>
        <mxCell id="K3AWcvOQubqJfNG0809f-14" value="app-root" style="text;html=1;align=center;verticalAlign=middle;resizable=0;points=[];autosize=1;strokeColor=none;fillColor=none;" vertex="1" parent="1">
          <mxGeometry x="616" y="145" width="70" height="30" as="geometry" />
        </mxCell>
        <mxCell id="K3AWcvOQubqJfNG0809f-15" value="Angular Bootstrap Process" style="text;strokeColor=none;fillColor=none;html=1;fontSize=24;fontStyle=1;verticalAlign=middle;align=center;" vertex="1" parent="1">
          <mxGeometry x="346" y="50" width="100" height="40" as="geometry" />
        </mxCell>
      </root>
    </mxGraphModel>
  </diagram>
  <diagram id="hRTNFbqxbQohRwixcAh5" name="Page-5">
    <mxGraphModel dx="574" dy="321" grid="1" gridSize="10" guides="1" tooltips="1" connect="1" arrows="1" fold="1" page="1" pageScale="1" pageWidth="827" pageHeight="1169" math="0" shadow="0">
      <root>
        <mxCell id="0" />
        <mxCell id="1" parent="0" />
        <mxCell id="PSGXRmHfwoWGzT2POF4o-4" style="edgeStyle=orthogonalEdgeStyle;rounded=0;orthogonalLoop=1;jettySize=auto;html=1;exitX=0.5;exitY=0;exitDx=0;exitDy=0;entryX=0.5;entryY=0;entryDx=0;entryDy=0;" edge="1" parent="1" source="PSGXRmHfwoWGzT2POF4o-1" target="PSGXRmHfwoWGzT2POF4o-2">
          <mxGeometry relative="1" as="geometry">
            <Array as="points">
              <mxPoint x="299" y="140" />
              <mxPoint x="619" y="140" />
            </Array>
          </mxGeometry>
        </mxCell>
        <mxCell id="PSGXRmHfwoWGzT2POF4o-1" value="Component Class" style="rounded=0;whiteSpace=wrap;html=1;" vertex="1" parent="1">
          <mxGeometry x="239" y="200" width="120" height="60" as="geometry" />
        </mxCell>
        <mxCell id="PSGXRmHfwoWGzT2POF4o-6" style="edgeStyle=orthogonalEdgeStyle;rounded=0;orthogonalLoop=1;jettySize=auto;html=1;exitX=0.5;exitY=1;exitDx=0;exitDy=0;entryX=0.5;entryY=1;entryDx=0;entryDy=0;" edge="1" parent="1" source="PSGXRmHfwoWGzT2POF4o-2" target="PSGXRmHfwoWGzT2POF4o-1">
          <mxGeometry relative="1" as="geometry">
            <Array as="points">
              <mxPoint x="619" y="320" />
              <mxPoint x="299" y="320" />
            </Array>
          </mxGeometry>
        </mxCell>
        <mxCell id="PSGXRmHfwoWGzT2POF4o-2" value="Component Template" style="rounded=0;whiteSpace=wrap;html=1;" vertex="1" parent="1">
          <mxGeometry x="559" y="200" width="120" height="60" as="geometry" />
        </mxCell>
        <mxCell id="PSGXRmHfwoWGzT2POF4o-3" value="Model" style="text;html=1;align=center;verticalAlign=middle;resizable=0;points=[];autosize=1;strokeColor=none;fillColor=none;" vertex="1" parent="1">
          <mxGeometry x="149" y="208" width="60" height="30" as="geometry" />
        </mxCell>
        <mxCell id="PSGXRmHfwoWGzT2POF4o-5" value="[ Property Binding ] / {{ Angular Expression }}" style="text;html=1;align=center;verticalAlign=middle;resizable=0;points=[];autosize=1;strokeColor=none;fillColor=none;" vertex="1" parent="1">
          <mxGeometry x="329" y="150" width="260" height="30" as="geometry" />
        </mxCell>
        <mxCell id="PSGXRmHfwoWGzT2POF4o-7" value="( Event Binding )" style="text;html=1;align=center;verticalAlign=middle;resizable=0;points=[];autosize=1;strokeColor=none;fillColor=none;" vertex="1" parent="1">
          <mxGeometry x="404" y="290" width="110" height="30" as="geometry" />
        </mxCell>
        <mxCell id="PSGXRmHfwoWGzT2POF4o-8" value="2 way data binding&lt;div&gt;- Banana in box Syntax [ ( ngModel ) ]&lt;/div&gt;" style="text;html=1;align=center;verticalAlign=middle;resizable=0;points=[];autosize=1;strokeColor=none;fillColor=none;" vertex="1" parent="1">
          <mxGeometry x="239" y="343" width="220" height="40" as="geometry" />
        </mxCell>
        <mxCell id="VTyK14pEqjGWXVoYvIfl-1" value="Data Binding Concept" style="text;strokeColor=none;fillColor=none;html=1;fontSize=24;fontStyle=1;verticalAlign=middle;align=center;" vertex="1" parent="1">
          <mxGeometry x="400" y="70" width="100" height="40" as="geometry" />
        </mxCell>
      </root>
    </mxGraphModel>
  </diagram>
  <diagram id="S5RXUj1VxTwg6AA_uQ66" name="Page-6">
    <mxGraphModel dx="861" dy="482" grid="1" gridSize="10" guides="1" tooltips="1" connect="1" arrows="1" fold="1" page="1" pageScale="1" pageWidth="827" pageHeight="1169" math="0" shadow="0">
      <root>
        <mxCell id="0" />
        <mxCell id="1" parent="0" />
      </root>
    </mxGraphModel>
  </diagram>
  <diagram id="s1caMR-XWLcw0PPevJLf" name="Page-7">
    <mxGraphModel dx="615" dy="344" grid="1" gridSize="10" guides="1" tooltips="1" connect="1" arrows="1" fold="1" page="1" pageScale="1" pageWidth="827" pageHeight="1169" math="0" shadow="0">
      <root>
        <mxCell id="0" />
        <mxCell id="1" parent="0" />
        <mxCell id="JW5VSEARZVbQNAoibjVQ-1" value="Nested Component Communication" style="text;strokeColor=none;fillColor=none;html=1;fontSize=24;fontStyle=1;verticalAlign=middle;align=center;" vertex="1" parent="1">
          <mxGeometry x="364" y="80" width="100" height="40" as="geometry" />
        </mxCell>
        <mxCell id="JW5VSEARZVbQNAoibjVQ-4" style="edgeStyle=orthogonalEdgeStyle;rounded=0;orthogonalLoop=1;jettySize=auto;html=1;exitX=0.25;exitY=1;exitDx=0;exitDy=0;entryX=0.25;entryY=0;entryDx=0;entryDy=0;" edge="1" parent="1" source="JW5VSEARZVbQNAoibjVQ-2" target="JW5VSEARZVbQNAoibjVQ-3">
          <mxGeometry relative="1" as="geometry" />
        </mxCell>
        <mxCell id="JW5VSEARZVbQNAoibjVQ-2" value="Parent (Users)" style="rounded=0;whiteSpace=wrap;html=1;" vertex="1" parent="1">
          <mxGeometry x="344" y="210" width="120" height="60" as="geometry" />
        </mxCell>
        <mxCell id="JW5VSEARZVbQNAoibjVQ-8" style="edgeStyle=orthogonalEdgeStyle;rounded=0;orthogonalLoop=1;jettySize=auto;html=1;exitX=0.75;exitY=0;exitDx=0;exitDy=0;entryX=0.75;entryY=1;entryDx=0;entryDy=0;" edge="1" parent="1" source="JW5VSEARZVbQNAoibjVQ-3" target="JW5VSEARZVbQNAoibjVQ-2">
          <mxGeometry relative="1" as="geometry" />
        </mxCell>
        <mxCell id="JW5VSEARZVbQNAoibjVQ-3" value="Child&amp;nbsp;&lt;div&gt;(UserImg / UserInfo)&lt;/div&gt;" style="rounded=0;whiteSpace=wrap;html=1;" vertex="1" parent="1">
          <mxGeometry x="344" y="450" width="120" height="60" as="geometry" />
        </mxCell>
        <mxCell id="JW5VSEARZVbQNAoibjVQ-5" value="@Input()" style="text;html=1;align=center;verticalAlign=middle;resizable=0;points=[];autosize=1;strokeColor=none;fillColor=none;" vertex="1" parent="1">
          <mxGeometry x="250" y="465" width="70" height="30" as="geometry" />
        </mxCell>
        <mxCell id="JW5VSEARZVbQNAoibjVQ-6" value="[ Property Binding ]&amp;nbsp;" style="text;html=1;align=center;verticalAlign=middle;resizable=0;points=[];autosize=1;strokeColor=none;fillColor=none;" vertex="1" parent="1">
          <mxGeometry x="195" y="218" width="130" height="30" as="geometry" />
        </mxCell>
        <mxCell id="JW5VSEARZVbQNAoibjVQ-7" value="user" style="text;html=1;align=center;verticalAlign=middle;resizable=0;points=[];autosize=1;strokeColor=none;fillColor=none;" vertex="1" parent="1">
          <mxGeometry x="285" y="188" width="50" height="30" as="geometry" />
        </mxCell>
        <mxCell id="JW5VSEARZVbQNAoibjVQ-10" value="@Output()&lt;div&gt;EventEmitter&lt;/div&gt;" style="text;html=1;align=center;verticalAlign=middle;resizable=0;points=[];autosize=1;strokeColor=none;fillColor=none;" vertex="1" parent="1">
          <mxGeometry x="480" y="455" width="90" height="40" as="geometry" />
        </mxCell>
        <mxCell id="JW5VSEARZVbQNAoibjVQ-11" value="(Event Binding)" style="text;html=1;align=center;verticalAlign=middle;resizable=0;points=[];autosize=1;strokeColor=none;fillColor=none;" vertex="1" parent="1">
          <mxGeometry x="464" y="218" width="110" height="30" as="geometry" />
        </mxCell>
      </root>
    </mxGraphModel>
  </diagram>
</mxfile>
